<svg height="480pt" viewBox="-36 0 480 480" width="480pt" xmlns="http://www.w3.org/2000/svg"><path d="m400 360v-64c0-4.417969-3.582031-8-8-8v-80h8c2.78125.015625 5.367188-1.414062 6.835938-3.773438 1.46875-2.363281 1.605468-5.316406.363281-7.800781l-15.199219-30.3125v-30.113281c0-.167969-.089844-.3125-.097656-.480469-.046875-.726562-.191406-1.441406-.429688-2.128906-.074218-.253906-.164062-.503906-.265625-.75-.375-.828125-.882812-1.589844-1.511719-2.25l-.046874-.054687-32-32c-1.5-1.496094-3.53125-2.335938-5.648438-2.335938h-64v-48c0-4.417969-3.582031-8-8-8h-32v-32c0-4.417969-3.582031-8-8-8s-8 3.582031-8 8v32h-32c-4.417969 0-8 3.582031-8 8v48h-64c-2.121094 0-4.15625.84375-5.65625 2.34375l-32 32-.046875.054688c-.628906.660156-1.136719 1.421874-1.511719 2.25-.101562.246093-.191406.496093-.265625.75-.238281.683593-.382812 1.398437-.429687 2.121093 0 .175781-.097656.320313-.097656.488281v30.113282l-15.160157 30.3125c-1.238281 2.480468-1.101562 5.421875.359375 7.78125 1.460938 2.355468 4.035156 3.789062 6.808594 3.785156h8v80h-8c-4.417969 0-8 3.582031-8 8v31.511719l-1.375.488281h-62.625c-4.417969 0-8 3.582031-8 8v136c0 4.417969 3.582031 8 8 8h64c4.417969 0 8-3.582031 8-8v-22.398438l161.816406 29.421876c4.660156.839843 9.460938.28125 13.808594-1.597657l125.65625-54.402343c12.074219-4.210938 21.390625-13.964844 25.050781-26.214844 3.664063-12.253906 1.21875-25.519532-6.5625-35.664063.105469-.375.179688-.757812.230469-1.144531zm-336 80v24h-48v-120h48zm264-328h20.6875l16 16h-36.6875zm0 32h48v16h-48zm0 32h51.054688l8 16h-59.054688zm0 32h48v32h-48zm0 48h48v32h-16v-16h-16v16h-16zm56 48v16h-80v-16zm0 32v12.800781c-8.203125-3.605469-17.390625-4.3125-26.046875-2-.230469.050781-.457031.121094-.671875.207031l-13.855469 4.992188h-39.425781v-16zm-176-280h64v40h-24v-24h-16v24h-24zm-40 144v-88h144v176h-32v-24c0-4.417969-3.582031-8-8-8h-64c-4.417969 0-8 3.582031-8 8v24h-32zm120 168v4l-27.871094 10.039062c-2.175781.785157-4.582031.59375-6.601562-.527343l-24.253906-13.511719zm-24-80h-16v-16h16zm2.351562 64c5.226563-4.167969 9.1875-9.707031 11.441407-16h10.207031v16zm18.9375-32h-5.695312c-.585938-5.710938-2.535156-11.199219-5.691406-16h14.097656v16zm-53.289062-48v16h-16v-16zm-100.6875-160h20.6875v16h-36.6875zm-27.3125 32h48v16h-48zm-3.054688 32h51.054688v16h-59.054688zm19.054688 96v16h-16v-32h48v32h-16v-16zm-16-32v-32h48v32zm-16 64h49.824219l-45.457031 16.230469c-.382813-.105469-.773438-.183594-1.167969-.230469h-3.199219zm287.464844 104.136719-126.191406 54.597656c-1.453126.628906-3.054688.8125-4.609376.53125l-164.664062-29.945313v-91.679687l105.382812-37.640625h58.617188c11.046875 0 20 8.953125 20 20s-8.953125 20-20 20h-60c-3.644531.003906-6.824219 2.46875-7.738281 5.996094-.910157 3.527344.671875 7.226562 3.859375 8.996094l65.597656 36.472656c6.054688 3.371094 13.269531 3.957031 19.785156 1.597656l96.800782-34.878906c7.140624-1.785156 14.707031-.183594 20.507812 4.347656s9.191406 11.484375 9.1875 18.84375c-.074219 10.34375-6.722656 19.496094-16.535156 22.761719zm0 0"/><path d="m184 128h16v16h-16zm0 0"/><path d="m216 128h16v16h-16zm0 0"/><path d="m248 128h16v16h-16zm0 0"/><path d="m280 128h16v16h-16zm0 0"/><path d="m184 160h16v16h-16zm0 0"/><path d="m216 160h16v16h-16zm0 0"/><path d="m248 160h16v16h-16zm0 0"/><path d="m280 160h16v16h-16zm0 0"/><path d="m184 192h16v16h-16zm0 0"/><path d="m216 192h16v16h-16zm0 0"/><path d="m248 192h16v16h-16zm0 0"/><path d="m280 192h16v16h-16zm0 0"/><path d="m184 224h16v16h-16zm0 0"/><path d="m216 224h16v16h-16zm0 0"/><path d="m248 224h16v16h-16zm0 0"/><path d="m280 224h16v16h-16zm0 0"/></svg>