<svg id="Layer_5" enable-background="new 0 0 64 64" height="512" viewBox="0 0 64 64" width="512" xmlns="http://www.w3.org/2000/svg"><g><path d="m51 5c-3.517 0-6.676 1.531-8.873 3.95-1.689-4.767-5.633-7.95-10.127-7.95s-8.438 3.183-10.127 7.95c-2.197-2.419-5.356-3.95-8.873-3.95-6.617 0-12 5.383-12 12s5.383 12 12 12h10.645c1.227 1.028 6.96 6.319 7.317 15.154-.536.145-1.022.397-1.444.734l-4.118-3.088c-.687-.516-1.54-.8-2.4-.8-2.206 0-4 1.794-4 4 0 1.193.525 2.267 1.357 3-.832.733-1.357 1.807-1.357 3 0 2.206 1.794 4 4 4 .86 0 1.713-.284 2.4-.8l2.189-1.641-3.963 5.661 6.003 4.502 1.371-5.941v6.219h2v-6.219l1.371 5.941 6.003-4.502-3.962-5.66 2.188 1.64c.688.516 1.54.8 2.4.8 2.206 0 4-1.794 4-4 0-1.193-.525-2.267-1.357-3 .832-.733 1.357-1.807 1.357-3 0-2.206-1.794-4-4-4-.86 0-1.713.284-2.4.8l-4.118 3.088c-.422-.337-.909-.589-1.444-.734.358-8.804 6.092-14.12 7.319-15.154h10.643c6.617 0 12-5.383 12-12s-5.383-12-12-12zm-19-2c4.03 0 7.534 3.265 8.635 7.981-1.033 1.772-1.635 3.824-1.635 6.019v3.866c-1.725 2.625-4.259 4.134-7 4.134s-5.275-1.509-7-4.134v-3.866c0-2.195-.602-4.247-1.635-6.019 1.101-4.716 4.605-7.981 8.635-7.981zm-9 24h-10c-5.514 0-10-4.486-10-10s4.486-10 10-10 10 4.486 10 10zm2 .523v-3.503c1.695 1.668 3.769 2.675 6 2.911v8.7c-2.008-4.47-4.938-7.215-6-8.108zm-.801 25.077c-.343.258-.769.4-1.199.4-1.103 0-2-.897-2-2s.897-2 2-2v-2c-1.103 0-2-.897-2-2s.897-2 2-2c.43 0 .856.142 1.2.4l4.105 3.078c-.195.47-.305.983-.305 1.522s.11 1.052.304 1.522zm4.172 6.678-1.997-1.498 3.495-4.992zm7.258 0-1.498-6.49 3.495 4.992zm4.172-15.878c.343-.258.769-.4 1.199-.4 1.103 0 2 .897 2 2s-.897 2-2 2v2c1.103 0 2 .897 2 2s-.897 2-2 2c-.43 0-.856-.142-1.2-.4l-4.105-3.078c.195-.47.305-.983.305-1.522s-.11-1.052-.304-1.522zm-5.801 4.6c0 1.103-.897 2-2 2s-2-.897-2-2 .897-2 2-2 2 .897 2 2zm-1-12.368v-8.7c2.231-.235 4.305-1.243 6-2.911v3.503c-1.062.892-3.992 3.637-6 8.108zm18-8.632h-10v-10c0-5.514 4.486-10 10-10s10 4.486 10 10-4.486 10-10 10z"/><path d="m51 23v2c.778 0 1.547-.112 2.287-.333l-.573-1.916c-.553.165-1.13.249-1.714.249z"/><path d="m51 9v2c3.309 0 6 2.691 6 6 0 1.957-.962 3.796-2.573 4.922l1.146 1.64c2.146-1.499 3.427-3.953 3.427-6.562 0-4.411-3.589-8-8-8z"/><path d="m10.713 24.667c.74.221 1.509.333 2.287.333v-2c-.584 0-1.161-.084-1.713-.249z"/><path d="m5 17c0 2.609 1.281 5.063 3.427 6.562l1.146-1.64c-1.611-1.126-2.573-2.965-2.573-4.922 0-3.309 2.691-6 6-6v-2c-4.411 0-8 3.589-8 8z"/></g></svg>