<?xml version="1.0" encoding="iso-8859-1"?>
<!-- Generator: Adobe Illustrator 18.0.0, SVG Export Plug-In . SVG Version: 6.00 Build 0)  -->
<!DOCTYPE svg PUBLIC "-//W3C//DTD SVG 1.1//EN" "http://www.w3.org/Graphics/SVG/1.1/DTD/svg11.dtd">
<svg version="1.1" id="Capa_1" xmlns="http://www.w3.org/2000/svg" xmlns:xlink="http://www.w3.org/1999/xlink" x="0px" y="0px"
	 viewBox="0 0 375.211 375.211" style="enable-background:new 0 0 375.211 375.211;" xml:space="preserve">
<g>
	<g>
		<path d="M324.341,205.469L302.828,78.363c-0.001-0.006-0.003-0.01-0.004-0.014c-0.225-1.525-0.912-2.959-1.992-4.09
			c-1.415-1.482-3.375-2.322-5.425-2.322h-36.94v-5.451c12.23-3.893,21.258-17.055,21.258-32.656c0-18.654-12.9-33.83-28.758-33.83
			c-15.857,0-28.758,15.176-28.758,33.83c0,15.602,9.027,28.764,21.258,32.656v5.451h-36.94c-2.05,0-4.01,0.84-5.425,2.322
			c-0.888,0.93-1.512,2.06-1.83,3.281c-0.001,0-0.002,0.002-0.002,0.002l-9.096,34.861v-36.4c0-16.267-4.465-33.793-11.943-46.879
			c-9.693-16.961-24.171-26.303-40.766-26.303s-31.073,9.342-40.767,26.303c-7.479,13.086-11.943,30.611-11.943,46.879V122.5
			c0,2.879,1.622,5.375,4,6.631l-12.488,64.83c-0.349,0.506-0.698,1.008-1.041,1.523c-15.769,23.658-24.454,54.969-24.454,88.168
			v84.059c0,4.142,3.357,7.5,7.5,7.5h182.153c3.903,0,7.154-2.994,7.475-6.885l3.067-37.287l3.067,37.287
			c0.32,3.891,3.571,6.885,7.475,6.885h27.623c4.143,0,7.5-3.358,7.5-7.5V214.182h20.309c2.201,0,4.291-0.967,5.717-2.645
			C324.081,209.859,324.698,207.641,324.341,205.469z M250.965,232.053c-3.903,0-7.154,2.994-7.475,6.885l-9.975,121.273h-9.359
			v-76.559c0-12.898-1.327-25.506-3.856-37.496v-38.871h61.33v152.926h-13.215l-9.977-121.273
			C258.12,235.047,254.869,232.053,250.965,232.053z M230.317,86.938l13.15,29.34v75.77h-24.212l-4.874-105.109H230.317z
			 M250.965,96.334l-4.211-9.396h8.423L250.965,96.334z M282.677,192.047h-24.21V116.27l13.148-29.332h15.936L282.677,192.047z
			 M237.208,33.83c0-10.207,6.301-18.83,13.758-18.83c7.458,0,13.758,8.623,13.758,18.83s-6.3,18.83-13.758,18.83
			C243.509,52.66,237.208,44.037,237.208,33.83z M192.25,163.855l9.069-34.76l3.283,70.799c0.047,1.012,0.293,1.967,0.698,2.832
			v2.018c-1.753-3.199-3.62-6.291-5.6-9.26c-0.852-1.279-1.724-2.521-2.606-3.74l-4.896-27.746
			C192.213,163.949,192.238,163.906,192.25,163.855z M178.396,172.096c-4.482-3.484-9.17-6.375-14.018-8.646
			c0.893-4.385,3.363-13.9,8.876-20.496L178.396,172.096z M137.468,113.594c0.884,0.08,1.784,0.008,2.661-0.234
			c13.176-3.625,22.719-2.178,26.186,3.969c2.483,4.406,1.24,10.123-1.479,12.701c-9.047,8.57-13.112,21.465-14.763,28.621
			c-4.135-0.859-8.345-1.303-12.609-1.303c-4.264,0-8.474,0.443-12.608,1.303c-1.65-7.156-5.716-20.051-14.763-28.621
			c-2.72-2.578-3.963-8.295-1.479-12.701c3.466-6.146,13.009-7.596,26.186-3.969C135.695,113.607,136.595,113.672,137.468,113.594z
			 M124.846,59.732c0-8.754,5.66-15.877,12.618-15.877c6.957,0,12.617,7.123,12.617,15.877c0,8.756-5.66,15.879-12.617,15.879
			C130.506,75.611,124.846,68.488,124.846,59.732z M99.754,76.004c0-23.463,11.985-58.182,37.71-58.182s37.709,34.719,37.709,58.182
			v28.5c-4.958-4.871-13.944-9.719-29.533-7.59V89.23c11.249-3.906,19.441-15.652,19.441-29.498
			c0-17.025-12.389-30.877-27.617-30.877s-27.618,13.852-27.618,30.877c0,14.395,8.855,26.518,20.794,29.924v7.465
			c-16.422-2.605-25.788,2.371-30.886,7.381V76.004z M101.425,142.654c5.692,6.605,8.219,16.354,9.123,20.795
			c-5.177,2.426-10.174,5.555-14.933,9.363L101.425,142.654z M209.157,360.211H65.771v-76.559c0-30.27,7.79-58.627,21.936-79.848
			c13.521-20.285,31.192-31.457,49.757-31.457c18.564,0,36.505,10.994,49.758,31.457c18.322,28.287,21.936,68.529,21.936,79.848
			V360.211z M297.363,199.182l2.368-51.066l8.378,51.066H297.363z"/>
	</g>
</g>
<g>
</g>
<g>
</g>
<g>
</g>
<g>
</g>
<g>
</g>
<g>
</g>
<g>
</g>
<g>
</g>
<g>
</g>
<g>
</g>
<g>
</g>
<g>
</g>
<g>
</g>
<g>
</g>
<g>
</g>
</svg>
