<?xml version="1.0" encoding="iso-8859-1"?>
<!-- Generator: Adobe Illustrator 19.0.0, SVG Export Plug-In . SVG Version: 6.00 Build 0)  -->
<svg version="1.1" id="Capa_1" xmlns="http://www.w3.org/2000/svg" xmlns:xlink="http://www.w3.org/1999/xlink" x="0px" y="0px"
	 viewBox="0 0 512 512" style="enable-background:new 0 0 512 512;" xml:space="preserve">
<g>
	<g>
		<path d="M504.5,97.833c4.143,0,7.5-3.358,7.5-7.5V24.067c0-4.142-3.357-7.5-7.5-7.5l-174.732-0.001V7.501
			c0-4.142-3.357-7.5-7.5-7.5H189.734c-4.143,0-7.5,3.358-7.5,7.5v9.066h-90.05c-4.143,0-7.5,3.358-7.5,7.5
			c0,4.142,3.357,7.5,7.5,7.5h90.05v9.066c0,4.142,3.357,7.5,7.5,7.5h132.533c4.143,0,7.5-3.358,7.5-7.5v-9.067L497,31.567v51.266
			H15V31.567h47.317c4.143,0,7.5-3.358,7.5-7.5c0-4.142-3.357-7.5-7.5-7.5H7.5c-4.143,0-7.5,3.358-7.5,7.5v66.266
			c0,4.142,3.357,7.5,7.5,7.5h9.068v100.164c0,0.007-0.001,0.013-0.001,0.019c0,0.006,0.001,0.013,0.001,0.019v100.164H7.5
			c-4.143,0-7.5,3.358-7.5,7.5v198.8c0,4.142,3.357,7.5,7.5,7.5h99.39c0.003,0,0.006,0,0.01,0h82.834h132.535H405.1
			c0.003,0,0.006,0,0.01,0h99.39c4.143,0,7.5-3.358,7.5-7.5V305.698c0-4.142-3.357-7.5-7.5-7.5h-9.065V97.833H504.5z
			 M197.234,33.133V15.001h117.533v18.132H197.234z M474.511,205.517l-19.71,32.03l-19.711-32.03H474.511z M435.09,190.517
			l19.71-32.03l19.711,32.03H435.09z M474.511,298.197h-39.42l19.71-32.029L474.511,298.197z M463.607,251.858l16.828-27.345v54.69
			L463.607,251.858z M463.607,144.176l16.828-27.345v54.691L463.607,144.176z M474.512,97.833L454.8,129.865l-19.711-32.032H474.512
			z M429.168,116.833l16.826,27.342l-16.826,27.343V116.833z M429.168,224.515l16.826,27.343l-16.826,27.343V224.515z
			 M76.911,205.517l-19.71,32.03l-19.711-32.03H76.911z M37.49,190.517l19.71-32.03l19.711,32.03H37.49z M76.913,298.2H37.489
			l19.712-32.032L76.913,298.2z M66.008,251.857l16.827-27.345v54.69L66.008,251.857z M66.007,144.176l16.828-27.345v54.691
			L66.007,144.176z M76.912,97.833l-19.711,32.032L37.489,97.833H76.912z M31.568,116.833l16.826,27.343l-16.826,27.342V116.833z
			 M31.568,224.516l16.826,27.342l-16.826,27.343V224.516z M99.4,405.081c0,0.007-0.001,0.013-0.001,0.019
			c0,0.006,0.001,0.013,0.001,0.019v33.091c0,0.007-0.001,0.013-0.001,0.019c0,0.006,0.001,0.013,0.001,0.019v58.753H15V313.2h84.4
			V405.081z M314.768,497.001H197.233v-18.134h117.535V497.001z M397.6,497.001h-67.831v-25.634c0-4.142-3.358-7.5-7.5-7.5H189.733
			c-4.143,0-7.5,3.358-7.5,7.5v25.634H114.4V445.73h283.2V497.001z M397.6,430.73H114.4v-18.129h283.2V430.73z M249.257,397.601
			l6.744-6.744l6.744,6.744H249.257z M405.1,298.197L405.1,298.197c-4.143,0.001-7.5,3.359-7.5,7.501v91.903H283.957l-20.456-20.456
			V292.24l14.37-14.369c2.93-2.929,2.93-7.677,0.001-10.606c-2.929-2.929-7.678-2.93-10.607,0l-16.559,16.558
			c-0.006,0.005-0.011,0.011-0.017,0.017l-8.275,8.274c-2.93,2.929-2.93,7.677-0.001,10.606c1.465,1.465,3.384,2.197,5.304,2.197
			c0.261,0,0.523-0.016,0.783-0.044v72.272l-20.456,20.456H114.4v-91.9c0-4.142-3.357-7.5-7.5-7.5h-9.065V97.833h41.563v18.133
			h-15.931c-1.989,0-3.896,0.79-5.304,2.197c-1.406,1.407-2.196,3.314-2.196,5.304l0.001,23.43c0,1.989,0.79,3.897,2.196,5.303
			l29.839,29.839l-0.553,0.553c-2.929,2.929-2.929,7.678,0,10.607c1.465,1.465,3.385,2.197,5.304,2.197s3.839-0.732,5.304-2.197
			l5.855-5.855c0.001-0.001,0.001-0.001,0.002-0.002l23.43-23.43c0.001-0.001,0.002-0.002,0.003-0.003l5.853-5.854
			c2.929-2.929,2.929-7.678,0-10.606c-2.93-2.93-7.678-2.929-10.607,0l-0.554,0.552l-27.642-27.642V97.833h203.206v22.525
			l-27.643,27.643l-0.553-0.553c-2.93-2.929-7.678-2.929-10.607,0c-2.929,2.929-2.929,7.678,0,10.606l35.144,35.144
			c1.465,1.464,3.385,2.197,5.304,2.197s3.839-0.732,5.304-2.197c2.929-2.929,2.929-7.678,0-10.607L364,182.038l29.839-29.839
			c1.406-1.406,2.196-3.314,2.196-5.303l0.001-23.43c0-1.989-0.79-3.897-2.196-5.304c-1.407-1.406-3.314-2.197-5.304-2.197h-15.931
			V97.833h41.565v100.164c0,0.007-0.001,0.013-0.001,0.019c0,0.006,0.001,0.013,0.001,0.019v100.162H405.1z M143.791,130.966
			l27.642,27.642l-12.823,12.824l-27.642-27.643l-0.001-12.823H143.791z M368.21,130.965h12.824l-0.001,12.823l-27.642,27.643
			l-12.824-12.823L368.21,130.965z M497,313.198v183.803h-84.4V313.198h9.025c0.012,0,0.024,0.002,0.036,0.002
			c0.013,0,0.026-0.002,0.039-0.002h66.205c0.01,0,0.019,0.001,0.029,0.001c0.01,0,0.019-0.001,0.029-0.001H497z"/>
	</g>
</g>
<g>
	<g>
		<path d="M454.8,323.049c-20.122,0-36.492,16.37-36.492,36.492s16.37,36.493,36.492,36.493s36.492-16.371,36.492-36.493
			S474.922,323.049,454.8,323.049z M454.8,381.034c-11.851,0-21.492-9.642-21.492-21.493s9.642-21.492,21.492-21.492
			c11.851,0,21.492,9.641,21.492,21.492S466.65,381.034,454.8,381.034z"/>
	</g>
</g>
<g>
	<g>
		<circle cx="454.8" cy="359.541" r="7.766"/>
	</g>
</g>
<g>
	<g>
		<path d="M454.8,414.165c-20.122,0-36.492,16.37-36.492,36.492s16.37,36.492,36.492,36.492s36.492-16.37,36.492-36.492
			S474.922,414.165,454.8,414.165z M454.8,472.149c-11.851,0-21.492-9.641-21.492-21.492s9.642-21.492,21.492-21.492
			c11.851,0,21.492,9.641,21.492,21.492C476.292,462.508,466.65,472.149,454.8,472.149z"/>
	</g>
</g>
<g>
	<g>
		<circle cx="454.8" cy="450.661" r="7.766"/>
	</g>
</g>
<g>
	<g>
		<path d="M57.199,323.049c-20.122,0-36.492,16.37-36.492,36.492s16.37,36.493,36.492,36.493c20.122,0,36.493-16.371,36.493-36.493
			S77.321,323.049,57.199,323.049z M57.199,381.034c-11.85,0-21.492-9.642-21.492-21.493s9.642-21.492,21.492-21.492
			c11.852,0,21.493,9.641,21.493,21.492S69.051,381.034,57.199,381.034z"/>
	</g>
</g>
<g>
	<g>
		<circle cx="57.2" cy="359.541" r="7.766"/>
	</g>
</g>
<g>
	<g>
		<path d="M57.199,414.165c-20.122,0-36.492,16.37-36.492,36.492s16.37,36.492,36.492,36.492c20.122,0,36.493-16.37,36.493-36.492
			S77.321,414.165,57.199,414.165z M57.199,472.149c-11.85,0-21.492-9.641-21.492-21.492s9.642-21.492,21.492-21.492
			c11.852,0,21.493,9.641,21.493,21.492C78.692,462.508,69.051,472.149,57.199,472.149z"/>
	</g>
</g>
<g>
	<g>
		<circle cx="57.2" cy="450.661" r="7.766"/>
	</g>
</g>
<g>
</g>
<g>
</g>
<g>
</g>
<g>
</g>
<g>
</g>
<g>
</g>
<g>
</g>
<g>
</g>
<g>
</g>
<g>
</g>
<g>
</g>
<g>
</g>
<g>
</g>
<g>
</g>
<g>
</g>
</svg>
